<svg width="48" height="48" viewBox="0 0 48 48" fill="none" xmlns="http://www.w3.org/2000/svg">
<g clip-path="url(#clip0_56_2)">
<path d="M47.282 29.8038C44.0754 42.6678 31.0421 50.4877 18.1965 47.2809C5.3321 44.0743 -2.48778 31.0415 0.719037 18.1961C3.92566 5.3321 16.94 -2.48777 29.8044 0.719038C42.65 3.90691 50.4889 16.9397 47.282 29.8038Z" fill="url(#paint0_linear_56_2)"/>
<path d="M35.4272 21.0094C35.896 17.8219 33.4772 16.0969 30.1397 14.9531L31.2272 10.6219L28.6022 9.9656L27.5522 14.1844C26.8585 14.0156 26.146 13.8469 25.4335 13.6969L26.4835 9.45935L23.8585 8.8031L22.7897 13.1156C22.2085 12.9843 21.646 12.8531 21.1022 12.7219V12.7031L17.4647 11.8031L16.771 14.6156C16.771 14.6156 18.721 15.0656 18.6835 15.0843C19.7522 15.3468 19.9397 16.0594 19.9022 16.6219L18.6647 21.5531C18.7397 21.5719 18.8335 21.5906 18.946 21.6469C18.8522 21.6281 18.7585 21.6094 18.6647 21.5719L16.9397 28.4719C16.8085 28.7906 16.471 29.2781 15.7397 29.0906C15.7585 29.1281 13.8272 28.6219 13.8272 28.6219L12.5147 31.6406L15.946 32.5031C16.5835 32.6719 17.2022 32.8219 17.821 32.9906L16.7335 37.3594L19.3585 38.0156L20.446 33.6844C21.1585 33.8719 21.871 34.0594 22.546 34.2281L21.4772 38.5406L24.1022 39.1969L25.1897 34.8281C29.6897 35.6719 33.0647 35.3344 34.471 31.2656C35.6147 28.0031 34.4147 26.1093 32.0522 24.8719C33.796 24.4781 35.0897 23.3344 35.4272 21.0094ZM29.4085 29.4469C28.6022 32.7094 23.0897 30.9469 21.3085 30.4969L22.7522 24.7031C24.5335 25.1531 30.271 26.0344 29.4085 29.4469ZM30.2335 20.9531C29.4835 23.9344 24.9085 22.4156 23.4272 22.0406L24.7397 16.7906C26.221 17.1656 31.0022 17.8594 30.2335 20.9531Z" fill="white"/>
</g>
<defs>
<linearGradient id="paint0_linear_56_2" x1="2398.7" y1="-1.152" x2="2398.7" y2="4799.52" gradientUnits="userSpaceOnUse">
<stop stop-color="#F9AA4B"/>
<stop offset="1" stop-color="#F7931A"/>
</linearGradient>
<clipPath id="clip0_56_2">
<rect width="48" height="48" fill="white"/>
</clipPath>
</defs>
</svg>
