<svg width="24" height="24" viewBox="0 0 24 24" fill="none" xmlns="http://www.w3.org/2000/svg">
<path d="M11.9925 19.4933C16.264 19.4933 19.7897 15.9676 19.7897 11.7037C19.7897 7.43973 16.2565 3.91406 11.985 3.91406C7.72102 3.91406 4.20288 7.43973 4.20288 11.7037C4.20288 15.9676 7.72855 19.4933 11.9925 19.4933ZM11.985 12.9316C10.5084 12.9241 9.36332 11.6886 9.36332 10.0539C9.34825 8.51702 10.5159 7.23633 11.985 7.23633C13.454 7.23633 14.6066 8.51702 14.6066 10.0539C14.6066 11.6886 13.4615 12.9467 11.985 12.9316ZM11.985 18.2051C10.2975 18.2051 8.5045 17.5045 7.36694 16.284C8.23329 14.9883 9.95093 14.2349 11.985 14.2349C13.9964 14.2349 15.7291 14.9732 16.603 16.284C15.4654 17.5045 13.6725 18.2051 11.985 18.2051Z" fill="#1C1C1E"/>
</svg>
